<svg width="482" height="382" viewBox="0 0 482 382" fill="none" xmlns="http://www.w3.org/2000/svg">
<path d="M0 56C0 42.7452 10.7452 32 24 32H372C415.078 32 450 66.9218 450 110V358C450 371.255 439.255 382 426 382H100C44.7715 382 0 337.228 0 282V56Z" fill="#4C007A"/>
<path d="M32 24C32 10.7452 42.7452 0 56 0H404C447.078 0 482 34.9218 482 78V326C482 339.255 471.255 350 458 350H132C76.7715 350 32 305.228 32 250V24Z" fill="#E55381"/>
<rect x="183" y="101" width="148" height="148" rx="15" stroke="white" stroke-width="2"/>
<path d="M226.384 167.4C230.544 167.4 233.792 168.36 236.128 170.28C238.496 172.168 239.68 174.952 239.68 178.632C239.68 182.312 238.496 185.112 236.128 187.032C233.792 188.952 230.544 189.912 226.384 189.912H220.24V199.704C220.24 200.056 220.112 200.36 219.856 200.616C219.6 200.872 219.296 201 218.944 201H212.656C212.304 201 212 200.872 211.744 200.616C211.488 200.36 211.36 200.056 211.36 199.704V168.696C211.36 168.344 211.488 168.04 211.744 167.784C212 167.528 212.304 167.4 212.656 167.4H226.384ZM226.144 182.424C227.552 182.424 228.672 182.12 229.504 181.512C230.368 180.872 230.8 179.912 230.8 178.632C230.8 177.352 230.368 176.408 229.504 175.8C228.672 175.16 227.552 174.84 226.144 174.84H220.24V182.424H226.144ZM273.45 180.792C273.514 182.584 273.546 183.736 273.546 184.248C273.546 184.76 273.514 185.88 273.45 187.608C273.354 190.232 272.666 192.552 271.386 194.568C270.138 196.584 268.41 198.168 266.202 199.32C263.994 200.44 261.434 201 258.522 201H245.562C245.21 201 244.906 200.872 244.65 200.616C244.394 200.36 244.266 200.056 244.266 199.704V168.696C244.266 168.344 244.394 168.04 244.65 167.784C244.906 167.528 245.21 167.4 245.562 167.4H258.282C261.194 167.4 263.77 167.976 266.01 169.128C268.282 170.248 270.058 171.832 271.338 173.88C272.65 175.896 273.354 178.2 273.45 180.792ZM253.146 175.08V193.32H258.282C262.314 193.32 264.41 191.48 264.57 187.8C264.634 185.944 264.666 184.728 264.666 184.152C264.666 183.512 264.634 182.328 264.57 180.6C264.474 178.776 263.866 177.4 262.746 176.472C261.658 175.544 260.09 175.08 258.042 175.08H253.146ZM302.186 167.4C302.538 167.4 302.842 167.528 303.098 167.784C303.354 168.04 303.482 168.344 303.482 168.696V173.784C303.482 174.136 303.354 174.44 303.098 174.696C302.842 174.952 302.538 175.08 302.186 175.08H287.834V181.656H301.226C301.578 181.656 301.882 181.784 302.138 182.04C302.394 182.296 302.522 182.6 302.522 182.952V188.04C302.522 188.392 302.394 188.696 302.138 188.952C301.882 189.208 301.578 189.336 301.226 189.336H287.834V199.704C287.834 200.056 287.706 200.36 287.45 200.616C287.194 200.872 286.89 201 286.538 201H280.25C279.898 201 279.594 200.872 279.338 200.616C279.082 200.36 278.954 200.056 278.954 199.704V168.696C278.954 168.344 279.082 168.04 279.338 167.784C279.594 167.528 279.898 167.4 280.25 167.4H302.186Z" fill="white"/>
<path d="M230.16 140.8C230.277 140.8 230.379 140.843 230.464 140.928C230.549 141.013 230.592 141.115 230.592 141.232V141.808C230.592 141.925 230.549 142.027 230.464 142.112C230.379 142.197 230.277 142.24 230.16 142.24H224.896V145.936H229.84C229.957 145.936 230.059 145.979 230.144 146.064C230.229 146.149 230.272 146.251 230.272 146.368V146.944C230.272 147.061 230.229 147.163 230.144 147.248C230.059 147.333 229.957 147.376 229.84 147.376H224.896V151.568C224.896 151.685 224.853 151.787 224.768 151.872C224.683 151.957 224.581 152 224.464 152H223.808C223.691 152 223.589 151.957 223.504 151.872C223.419 151.787 223.376 151.685 223.376 151.568V141.232C223.376 141.115 223.419 141.013 223.504 140.928C223.589 140.843 223.691 140.8 223.808 140.8H230.16ZM236.61 140.64C237.517 140.64 238.301 140.832 238.962 141.216C239.624 141.6 240.125 142.123 240.466 142.784C240.818 143.435 241.005 144.165 241.026 144.976C241.048 145.616 241.058 146.091 241.058 146.4C241.058 146.709 241.048 147.184 241.026 147.824C240.994 148.635 240.802 149.371 240.45 150.032C240.109 150.683 239.608 151.2 238.946 151.584C238.296 151.968 237.517 152.16 236.61 152.16C235.704 152.16 234.92 151.968 234.258 151.584C233.608 151.2 233.106 150.683 232.754 150.032C232.413 149.371 232.226 148.635 232.194 147.824C232.184 147.504 232.178 147.029 232.178 146.4C232.178 145.771 232.184 145.296 232.194 144.976C232.216 144.165 232.397 143.435 232.738 142.784C233.09 142.123 233.597 141.6 234.258 141.216C234.92 140.832 235.704 140.64 236.61 140.64ZM236.61 142.08C235.757 142.08 235.069 142.331 234.546 142.832C234.024 143.333 233.746 144.075 233.714 145.056C233.704 145.376 233.698 145.824 233.698 146.4C233.698 146.976 233.704 147.424 233.714 147.744C233.746 148.725 234.024 149.467 234.546 149.968C235.069 150.469 235.757 150.72 236.61 150.72C237.464 150.72 238.152 150.469 238.674 149.968C239.197 149.467 239.474 148.725 239.506 147.744C239.528 147.104 239.538 146.656 239.538 146.4C239.538 146.144 239.528 145.696 239.506 145.056C239.474 144.075 239.197 143.333 238.674 142.832C238.152 142.331 237.464 142.08 236.61 142.08ZM247.664 140.8C248.784 140.8 249.707 141.077 250.432 141.632C251.158 142.176 251.52 143.003 251.52 144.112C251.52 144.944 251.312 145.621 250.896 146.144C250.48 146.667 249.92 147.04 249.216 147.264L251.632 151.472C251.664 151.536 251.68 151.595 251.68 151.648C251.68 151.744 251.643 151.829 251.568 151.904C251.504 151.968 251.424 152 251.328 152H250.64C250.342 152 250.112 151.856 249.952 151.568L247.632 147.488H244.88V151.568C244.88 151.685 244.838 151.787 244.752 151.872C244.667 151.957 244.566 152 244.448 152H243.792C243.675 152 243.574 151.957 243.488 151.872C243.403 151.787 243.36 151.685 243.36 151.568V141.232C243.36 141.115 243.403 141.013 243.488 140.928C243.574 140.843 243.675 140.8 243.792 140.8H247.664ZM247.584 146.048C249.195 146.048 250 145.403 250 144.112C250 143.451 249.798 142.976 249.392 142.688C248.987 142.389 248.384 142.24 247.584 142.24H244.88V146.048H247.584ZM261.99 141.312C262.161 140.971 262.396 140.8 262.694 140.8H263.302C263.42 140.8 263.521 140.843 263.606 140.928C263.692 141.013 263.734 141.115 263.734 141.232V151.568C263.734 151.685 263.692 151.787 263.606 151.872C263.521 151.957 263.42 152 263.302 152H262.646C262.529 152 262.428 151.957 262.342 151.872C262.257 151.787 262.214 151.685 262.214 151.568V143.984L259.718 148.8C259.633 148.971 259.537 149.099 259.43 149.184C259.334 149.269 259.212 149.312 259.062 149.312H258.454C258.305 149.312 258.177 149.269 258.07 149.184C257.974 149.099 257.884 148.971 257.798 148.8L255.302 143.984V151.568C255.302 151.685 255.26 151.787 255.174 151.872C255.089 151.957 254.988 152 254.87 152H254.214C254.097 152 253.996 151.957 253.91 151.872C253.825 151.787 253.782 151.685 253.782 151.568V141.232C253.782 141.115 253.825 141.013 253.91 140.928C253.996 140.843 254.097 140.8 254.214 140.8H254.822C255.121 140.8 255.356 140.971 255.526 141.312L258.758 147.568L261.99 141.312ZM267.765 149.472L266.933 151.6C266.837 151.867 266.629 152 266.309 152H265.717C265.621 152 265.536 151.968 265.461 151.904C265.397 151.829 265.365 151.744 265.365 151.648C265.365 151.595 265.387 151.52 265.429 151.424L269.349 141.328C269.488 140.976 269.728 140.8 270.069 140.8H271.029C271.371 140.8 271.611 140.976 271.749 141.328L275.653 151.424C275.696 151.52 275.717 151.595 275.717 151.648C275.717 151.744 275.68 151.829 275.605 151.904C275.541 151.968 275.461 152 275.365 152H274.773C274.453 152 274.245 151.867 274.149 151.6L273.317 149.472H267.765ZM272.757 148.032L270.549 142.32L268.325 148.032H272.757ZM284.288 140.8C284.406 140.8 284.507 140.843 284.592 140.928C284.678 141.013 284.72 141.115 284.72 141.232V141.808C284.72 141.925 284.678 142.027 284.592 142.112C284.507 142.197 284.406 142.24 284.288 142.24H281.296V151.568C281.296 151.685 281.254 151.787 281.168 151.872C281.083 151.957 280.982 152 280.864 152H280.208C280.091 152 279.99 151.957 279.904 151.872C279.819 151.787 279.776 151.685 279.776 151.568V142.24H276.784C276.667 142.24 276.566 142.197 276.48 142.112C276.395 142.027 276.352 141.925 276.352 141.808V141.232C276.352 141.115 276.395 141.013 276.48 140.928C276.566 140.843 276.667 140.8 276.784 140.8H284.288ZM290.47 140.64C291.376 140.64 292.16 140.832 292.822 141.216C293.483 141.6 293.984 142.123 294.326 142.784C294.678 143.435 294.864 144.165 294.886 144.976C294.907 145.616 294.918 146.091 294.918 146.4C294.918 146.709 294.907 147.184 294.886 147.824C294.854 148.635 294.662 149.371 294.31 150.032C293.968 150.683 293.467 151.2 292.806 151.584C292.155 151.968 291.376 152.16 290.47 152.16C289.563 152.16 288.779 151.968 288.118 151.584C287.467 151.2 286.966 150.683 286.614 150.032C286.272 149.371 286.086 148.635 286.054 147.824C286.043 147.504 286.038 147.029 286.038 146.4C286.038 145.771 286.043 145.296 286.054 144.976C286.075 144.165 286.256 143.435 286.598 142.784C286.95 142.123 287.456 141.6 288.118 141.216C288.779 140.832 289.563 140.64 290.47 140.64ZM290.47 142.08C289.616 142.08 288.928 142.331 288.406 142.832C287.883 143.333 287.606 144.075 287.574 145.056C287.563 145.376 287.558 145.824 287.558 146.4C287.558 146.976 287.563 147.424 287.574 147.744C287.606 148.725 287.883 149.467 288.406 149.968C288.928 150.469 289.616 150.72 290.47 150.72C291.323 150.72 292.011 150.469 292.534 149.968C293.056 149.467 293.334 148.725 293.366 147.744C293.387 147.104 293.398 146.656 293.398 146.4C293.398 146.144 293.387 145.696 293.366 145.056C293.334 144.075 293.056 143.333 292.534 142.832C292.011 142.331 291.323 142.08 290.47 142.08Z" fill="white"/>
</svg>
